<svg xmlns="http://www.w3.org/2000/svg" width="80" height="30" viewBox="0 0 135 45">
  <g fill="none" fill-rule="evenodd">
    <g fill-rule="nonzero">
      <path fill="#000" d="M0 1h133.96v42.759H0z"/>
      <path fill="#FFF" d="M68.811 2.045h64.062v40.629H68.811z"/>
      <path fill="#F7B600" d="M69.857 36.083h61.93v5.546h-61.93z"/>
      <path fill="#1A1F71" d="M69.857 3.13h61.93v5.546h-61.93zm24.788045 11.654112l-6.3981982 15.2308413h-4.184985L80.923123 17.8383178c-.201201-.7635514-.362162-1.004673-.9255253-1.3261683-1.2397505-.595901-2.5518636-1.0281895-3.9033033-1.2859813l.0804805-.442056h6.72012c.90836.0040944 1.677645.669925 1.810811 1.5672897l1.649849 8.800934 4.104505-10.368224h4.184985zm16.377778 10.2476637c0-4.0186916-5.553153-4.259813-5.512913-6.0280374 0-.5626168.523123-1.1252336 1.69009-1.2859813 1.33886-.124848 2.686753.1110674 3.903303.6831776l.684084-3.2149533c-1.181486-.4530774-2.436507-.6846762-3.702102-.6831776-3.903303 0-6.639639 2.0897197-6.67988 5.0233645-.04024 2.2102804 1.971772 3.415888 3.460661 4.1392524 1.488889.7233644 2.052252 1.2457944 2.052252 1.888785 0 1.004673-1.247447 1.486916-2.374174 1.486916-1.41591.0390894-2.817314-.293476-4.064264-.964486l-.7243244 3.335514c1.3934174.558539 2.8849824.831858 4.3861864.8037383 4.144744.040186 6.840841-2.009346 6.881081-5.184113zm10.301501 4.9831776h3.661862l-3.178979-15.2308412h-3.38018c-.74181-.008875-1.412982.43798-1.69009 1.125234l-5.955556 14.105608h4.144745l.804805-2.290654h5.07027l.523123 2.290655zm-4.426426-5.3850468l2.092492-5.706542 1.207208 5.706542h-3.2997zm-16.619219-9.8457944l-3.2594598 15.230842h-3.9435435l3.2594593-15.230842h3.943544z"/>
      <path fill="#FFF" d="M18.8726727 40.182243v-2.411215c.0373056-.4081838-.106051-.812239-.39237-1.1059065-.286319-.2936676-.686944-.4475563-1.096519-.4211963-.5431735-.0215714-1.059544.2362717-1.368168.6831776-.2686016-.4491672-.764638-.7123373-1.2876878-.6831776-.458895-.0199827-.897209.1913365-1.166967.562617v-.482243h-.764565v3.8579438h.764564v-2.2102804c-.032193-.2678754.057622-.536047.244713-.7306757.187091-.194629.451731-.295191.721052-.273998.563363 0 .885285.361682.885285 1.004673v2.21028h.764564v-2.21028c-.032192-.267876.057622-.536047.244714-.730676.187091-.194629.451731-.295191.721052-.273998.563363 0 .885285.361683.885285 1.004673v2.210281h.845045zm12.554955-3.817757H30.019219v-1.1654206h-.7645645v1.1654206h-.804805v.6831776h.804805v1.8084112c0 .884112.321922 1.406542 1.2876876 1.406542.366491-.0072348.725658-.1038056 1.046247-.2813084l-.241441-.6831776c-.216928.135467-.468513.2052593-.724324.2009346-.171322.0141082-.339719-.050673-.457291-.175917-.117572-.125244-.171451-.2972435-.146312-.4670736v-1.8485982h1.408409v-.6429906zm7.1627627-.1205608c-.423425-.0087244-.8204617.2047813-1.0462463.562617v-.482243h-.764564v3.8579438h.764565v-2.1700935c0-.6429906.321922-1.0448598.845045-1.0448598.176846.007067.352329.0340286.523123.080374l.241442-.7233646c-.184451-.046417-.373275-.073356-.563363-.080373zm-10.8246246.4018692c-.4711004-.2877002-1.017773-.427687-1.5693694-.4018692-.9657658 0-1.5693694.442056-1.5693694 1.2056075 0 .6429907.4426427 1.004673 1.2876877 1.1252337l.4024024.040187c.442643.0803737.724325.2411214.724325.442056 0 .2813084-.321922.482243-.925525.482243-.461589.0096005-.913705-.1314988-1.287687-.4018692l-.402402.6028037c.488863.322812 1.063849.490878 1.64985.482243 1.126727 0 1.73033-.52243 1.73033-1.245795s-.482883-1.004673-1.327928-1.125234l-.402402-.040187c-.362162-.040187-.684084-.160748-.684084-.401869s.321922-.482243.764565-.482243c.421006.018338.832959.128047 1.207207.321495l.402403-.602804zm11.70991 1.6074766c-.033301.542425.167961 1.073062.5527437 1.4573345.3847825.3842727.9161234.585268 1.4592682.5520113.4950118.025992.9822094-.1314218 1.3681682-.442056l-.402403-.6028038c-.284273.2315166-.6392.3591212-1.006006.3616823-.671784-.0530802-1.189832-.6129918-1.189832-1.2859814 0-.67299.518048-1.232902 1.189831-1.285982.366806.002561.721733.130165 1.006006.361682l.402402-.602804c-.385959-.310634-.873157-.468048-1.368169-.442056-.536462-.064299-1.073517.115092-1.463291.488779-.389774.373687-.591165.902264-.548721 1.440192zm-5.4324326-2.0093458c-1.1267267 0-1.8912912.8037384-1.8912912 2.0093458-.034851.5357565.160248 1.061009.5365284 1.4444597.3762803.3834507.8981814.5888617 1.4352433.564886.5677925.0117796 1.1222124-.1727822 1.5693694-.5224298l-.402402-.562617c-.323249.250167-.717923.390936-1.126726.401869-.592611.022536-1.101972-.415986-1.166967-1.004673h2.857057v-.321496c0-1.205608-.724324-2.009346-1.81081-2.009346zm0 .7233645c.2633495-.012121.5201357.0842504.7103143.26658.1901786.1823295.2970743.43463.2956917.697906h-2.0924924c.0366717-.5643415.520994-.9942796 1.0864864-.964486zM23.621021 38.253271v-1.928972h-.7645645v.482243c-.298874-.3797188-.764585-.589761-1.2474475-.5626168-1.1112035 0-2.012012.8996148-2.012012 2.0093458s.9008085 2.0093458 2.012012 2.0093458c.4828625.0271444.9485734-.182898 1.2474475-.5626168v.482243h.7645645v-1.928972zm-3.1387387 0c.0437292-.6535868.6020185-1.1527185 1.2573047-1.1240777.655286.028641 1.167777.5745736 1.1541638 1.2294767-.0136134.654903-.5483495 1.179125-1.2042613 1.1805823-.3369393.008197-.6613842-.1275148-.8918992-.3730716-.230515-.245557-.3452142-.5776447-.315308-.9129097zm29.7375375-2.0093458c-.423425-.0087244-.8204617.2047813-1.0462462.562617v-.482243h-.7645646v3.8579438h.7645646v-2.1700935c0-.6429906.321922-1.0448598.845045-1.0448598.1768454.007067.3523286.0340286.523123.080374l.2414416-.7233646c-.1844517-.046417-.3732756-.073356-.5633634-.080373zm6.196997 3.375701c.0567226-.0060135.1137453.0082233.160961.040187.0402402 0 .0804805.0401868.1207207.0803737.0402402.040186.0804805.080373.0804805.12056s.0402402.080374.0402402.160747c.0060215.056647-.0082342.113594-.0402402.160747-.0402403.040187-.0402403.080373-.0804805.12056s-.0804805.080374-.1207207.080374c-.0402403 0-.0804805.040187-.160961.040187-.0567226.006013-.1137453-.008224-.160961-.040187-.0402402-.040187-.0804804-.040187-.1207207-.080374-.04024-.040187-.08048-.080374-.08048-.120561s-.04024-.080374-.04024-.160748c-.006021-.056648.008234-.113595.040241-.160748.04024-.040187.04024-.080374.080481-.120561s.080481-.080374.120721-.080374.120721-.040187.160961-.040187zm0 .6831775c.044234.0053174.088528-.0094277.1207207-.040187.0428023-.0037376.076738-.0376282.0804805-.0803737l.0804805-.0803738c0-.040187.0402402-.080374.0402402-.1205608.0053244-.0441755-.0094402-.0884107-.0402402-.1205607-.0037426-.0427455-.0376783-.0766362-.0804805-.080374L56.5375375 39.7c-.0402402 0-.0804804-.040187-.1207207-.040187-.044234-.0053173-.088528.0094278-.1207207.040187-.042802.0037377-.076737.0376283-.08048.0803738l-.08048.080374c0 .0401868-.04024.0803737-.04024.1205606-.005324.0441755.00944.0884108.04024.1205608.003743.0427455.037679.076636.080481.0803738l.080481.0803738c.032193.0307592.076487.0455043.120721.040187zm.0402403-.442056c.044235-.0053174.088528.0094277.120721.040187.04024.0401868.04024.0401868.04024.0803737 0 .040187 0 .040187-.04024.0803738-.021705.0218237-.049975.03594-.08048.040187l.120721.1205607h-.12072l-.12072-.120561h-.04024v.12056h-.08048v-.361683h.201201zm-.08048.040187v.0803737h.120721v-.0803738h-.12072zm-9.134535-1.6476637v-1.928972h-.764564v.482243c-.298874-.3797188-.764585-.589761-1.247447-.5626168-1.111203 0-2.012012.8996148-2.012012 2.0093458s.900809 2.0093458 2.012012 2.0093458c.482863.0271444.948574-.182898 1.247448-.5626168v.482243h.764565v-1.928972zm-3.098498 0c.043729-.6535868.602019-1.1527185 1.257305-1.1240777.655286.028641 1.167777.5745736 1.154164 1.2294767-.013613.654903-.548349 1.179125-1.204261 1.1805823-.764564.040187-1.207207-.5626168-1.207207-1.2859813zm10.905105 0v-3.4560747h-.764564v2.0093458c-.298874-.379718-.764584-.589761-1.247447-.562616-1.111203 0-2.012012.899615-2.012012 2.009346s.900809 2.009346 2.012012 2.009346c.482863.027145.948574-.182898 1.247448-.562617v.482243h.764565v-1.928972zm-3.138738 0c.043729-.6535868.602019-1.1527185 1.257305-1.1240777.655286.028641 1.167777.5745736 1.154164 1.2294767-.013613.654903-.548349 1.179125-1.204261 1.1805823-.336939.008197-.661384-.1275148-.891899-.3730716-.230515-.245557-.345214-.5776447-.315308-.9129097z"/>
      <path fill="#FF5F00" d="M26.88 7.068h13.963v22.746H26.88z"/>
      <path fill="#EB001B" d="M28.329069 18.4410374c.0012166-4.4330274 2.0318863-8.62221 5.512913-11.3728972-4.9887606-3.917236-11.9497457-4.1357147-17.174965-.5390564-5.2252192 3.5966582-7.4980798 10.17104-5.6078703 16.2210917 1.8902095 6.0500516 7.50339 10.1671338 13.849502 10.1581516 3.2416802.002279 6.389276-1.088008 8.9333333-3.094392-3.4810267-2.750687-5.5116964-6.93987-5.512913-11.372897z"/>
      <path fill="#F79E1B" d="M55.8936336 27.4027196v-.482243h.2012012v-.0803738h-.4828828v.0803738h.2012012v.482243h.0804804zm.9657658 0v-.5626168h-.160961l-.160961.4018692-.160961-.4018692h-.1609608v.5626168h.1207207v-.442056l.160961.3616822h.1207207l.160961-.3616822v.442056h.0804804zm.4426426-8.9616822c-.0061637 5.5316633-3.1702583 10.5756033-8.1515824 12.9945838-4.981324 2.4189804-10.907799 1.7895113-15.2682374-1.6216866 3.4819388-2.7499456 5.512805-6.9396154 5.512805-11.3728972 0-4.433282-2.0308662-8.6229516-5.512805-11.3728972 4.3604385-3.411198 10.2869133-4.040667 15.2682374-1.6216866 4.981324 2.4189805 8.1454187 7.4629205 8.1515824 12.9945838z"/>
    </g>
  </g>
</svg>
